<?xml version="1.0" standalone="no"?>
<!DOCTYPE svg PUBLIC "-//W3C//DTD SVG 20010904//EN"
 "http://www.w3.org/TR/2001/REC-SVG-20010904/DTD/svg10.dtd">
<svg version="1.0" xmlns="http://www.w3.org/2000/svg"
 width="112.000000pt" height="112.000000pt" viewBox="0 0 112.000000 112.000000"
 preserveAspectRatio="xMidYMid meet">
<metadata>
Created by potrace 1.14, written by Peter Selinger 2001-2017
</metadata>
<g transform="translate(0.000000,112.000000) scale(0.100000,-0.100000)"
fill="#000000" stroke="none">
<path d="M474 1073 c-6 -5 -14 -24 -18 -44 -15 -80 -97 -119 -170 -80 -23 11
-48 21 -56 21 -17 0 -100 -83 -100 -99 0 -6 9 -25 20 -43 34 -56 22 -131 -25
-162 -12 -8 -38 -18 -59 -21 -20 -4 -37 -13 -37 -21 -6 -60 -2 -137 6 -144 5
-4 27 -10 47 -14 77 -14 117 -117 68 -179 -11 -14 -20 -32 -20 -40 0 -13 92
-107 105 -107 4 0 25 11 48 23 64 37 121 23 157 -36 11 -18 20 -42 20 -55 0
-51 84 -47 86 4 1 16 2 34 2 40 3 14 114 16 123 2 4 -6 2 -19 -3 -28 -16 -25
-2 -52 24 -48 24 3 25 9 14 78 -2 14 -4 28 -5 33 -1 4 -37 7 -80 7 -70 0 -79
2 -76 18 2 9 4 22 4 27 1 7 48 10 128 10 112 0 126 -2 129 -18 1 -9 -2 -19 -7
-23 -15 -9 -10 -41 8 -48 23 -9 48 18 38 41 -4 10 -8 28 -9 40 -1 12 -5 25 -9
30 -5 4 -68 9 -140 9 -161 2 -150 0 -142 24 7 21 -5 29 -80 49 -52 13 -119 71
-148 125 -32 60 -30 164 3 229 34 68 108 124 174 134 45 6 58 12 52 22 -4 5
-3 16 0 25 5 14 27 16 145 16 76 0 139 3 140 8 0 4 3 21 6 37 11 62 9 70 -17
70 -25 0 -27 -5 -18 -60 3 -19 -3 -20 -127 -20 l-130 0 0 25 c0 24 3 25 67 26
80 2 102 9 94 29 -3 8 0 26 6 40 8 19 8 28 -2 40 -26 32 -61 6 -45 -32 18 -42
16 -44 -53 -41 l-67 3 0 40 c0 37 -2 40 -30 43 -16 1 -35 -1 -41 -5z"/>
<path d="M1006 882 c-3 -5 -24 -8 -48 -7 -63 3 -68 -5 -68 -101 l0 -84 -104 0
c-94 0 -110 3 -153 26 -142 76 -305 -51 -263 -206 16 -61 63 -107 125 -125 59
-17 86 -14 155 20 38 19 59 22 135 20 50 -2 93 -3 97 -4 4 0 9 -40 10 -88 l3
-88 55 -5 c30 -3 60 -9 67 -13 15 -9 44 19 37 38 -7 18 -34 28 -48 17 -6 -5
-27 -8 -46 -8 l-35 1 0 82 c0 45 -4 85 -8 90 -5 4 -53 8 -108 8 -54 0 -100 2
-101 5 -5 17 26 80 40 81 66 3 243 -1 273 -6 29 -5 38 -3 43 11 10 27 -16 49
-42 35 -12 -6 -76 -11 -154 -11 l-133 0 -16 45 -17 45 109 0 c80 0 109 3 110
13 1 6 3 44 4 82 1 39 3 75 4 81 1 12 53 12 84 -1 26 -11 49 12 36 36 -10 19
-34 25 -43 11z"/>
</g>
</svg>
